<svg xmlns="http://www.w3.org/2000/svg" viewBox="0 0 400 300"><defs><linearGradient id="g" x1="0" y1="0" x2="1" y2="1"><stop offset="0" stop-color="#0b1321"/><stop offset="1" stop-color="#1b2a49"/></linearGradient></defs><rect width="400" height="300" fill="url(#g)"/><g stroke="#C2BEBA" stroke-opacity="0.35" fill="none"><path d="M200 50c14 0 26 10 30 22 5 12 8 20 18 24-8 20-14 34-14 50 0 18 4 28 12 42h-92c8-14 12-24 12-42 0-16-6-30-14-50 10-4 13-12 18-24 4-12 16-22 30-22z"/><path d="M176 210 l-12 40h72l-12-40"/></g><text x="200" y="285" text-anchor="middle" fill="#C2BEBA" fill-opacity="0.7" font-family="Inter, sans-serif" font-size="16">Model placeholder</text></svg>